<?xml version="1.0" encoding="UTF-8" standalone="no"?>
<!DOCTYPE svg PUBLIC "-//W3C//DTD SVG 1.1//EN"
 "http://www.w3.org/Graphics/SVG/1.1/DTD/svg11.dtd">
<!-- Generated by graphviz version 2.40.1 (20161225.0304)
 -->
<!-- Title: dependencies Pages: 1 -->
<svg width="1328pt" height="284pt"
 viewBox="0.00 0.00 1328.00 284.00" xmlns="http://www.w3.org/2000/svg" xmlns:xlink="http://www.w3.org/1999/xlink">
<g id="graph0" class="graph" transform="scale(1 1) rotate(0) translate(4 280)">
<title>dependencies</title>
<polygon fill="#ffffff" stroke="transparent" points="-4,4 -4,-280 1324,-280 1324,4 -4,4"/>
<text text-anchor="start" x="639.0091" y="-42.4" font-family="sans-serif" font-weight="bold" font-size="14.00" fill="#000000">Legend</text>
<polygon fill="#ffffb3" stroke="transparent" points="426,-10 426,-30 446,-30 446,-10 426,-10"/>
<text text-anchor="start" x="449.629" y="-15.4" font-family="sans-serif" font-size="14.00" fill="#000000"> &#160;Declarations</text>
<polygon fill="#8dd3c7" stroke="transparent" points="539,-10 539,-30 559,-30 559,-10 539,-10"/>
<text text-anchor="start" x="562.7251" y="-15.4" font-family="sans-serif" font-size="14.00" fill="#000000"> &#160;Module</text>
<polygon fill="#80b1d3" stroke="transparent" points="625,-10 625,-30 645,-30 645,-10 625,-10"/>
<text text-anchor="start" x="648.7812" y="-15.4" font-family="sans-serif" font-size="14.00" fill="#000000"> &#160;Bootstrap</text>
<polygon fill="#fdb462" stroke="transparent" points="722,-10 722,-30 742,-30 742,-10 722,-10"/>
<text text-anchor="start" x="745.6732" y="-15.4" font-family="sans-serif" font-size="14.00" fill="#000000"> &#160;Providers</text>
<polygon fill="#fb8072" stroke="transparent" points="818,-10 818,-30 838,-30 838,-10 818,-10"/>
<text text-anchor="start" x="841.7258" y="-15.4" font-family="sans-serif" font-size="14.00" fill="#000000"> &#160;Exports</text>
<g id="clust1" class="cluster">
<title>cluster_AppModule</title>
<polygon fill="none" stroke="#000000" stroke-dasharray="1,5" points="8,-70 8,-268 1312,-268 1312,-70 8,-70"/>
</g>
<g id="clust2" class="cluster">
<title>cluster_AppModule_declarations</title>
<polygon fill="none" stroke="#000000" points="16,-78 16,-130 1304,-130 1304,-78 16,-78"/>
</g>
<g id="clust14" class="cluster">
<title>cluster_AppModule_bootstrap</title>
<polygon fill="none" stroke="#000000" points="617,-208 617,-260 741,-260 741,-208 617,-208"/>
</g>
<!-- AppComponent -->
<g id="node1" class="node">
<title>AppComponent</title>
<polygon fill="#ffffb3" stroke="#000000" points="1295.9399,-122 1190.0601,-122 1190.0601,-86 1295.9399,-86 1295.9399,-122"/>
<text text-anchor="middle" x="1243" y="-99.8" font-family="Times,serif" font-size="14.00" fill="#000000">AppComponent</text>
</g>
<!-- AppModule -->
<g id="node10" class="node">
<title>AppModule</title>
<polygon fill="#8dd3c7" stroke="#000000" points="720.6571,-187 717.6571,-191 696.6571,-191 693.6571,-187 637.3429,-187 637.3429,-151 720.6571,-151 720.6571,-187"/>
<text text-anchor="middle" x="679" y="-164.8" font-family="Times,serif" font-size="14.00" fill="#000000">AppModule</text>
</g>
<!-- AppComponent&#45;&gt;AppModule -->
<g id="edge1" class="edge">
<title>AppComponent&#45;&gt;AppModule</title>
<path fill="none" stroke="#000000" d="M1243,-122.0109C1243,-144.4852 1243,-180 1243,-180 1243,-180 730.9309,-180 730.9309,-180"/>
<polygon fill="#000000" stroke="#000000" points="730.9309,-176.5001 720.9309,-180 730.9309,-183.5001 730.9309,-176.5001"/>
</g>
<!-- FooterComponent -->
<g id="node2" class="node">
<title>FooterComponent</title>
<polygon fill="#ffffb3" stroke="#000000" points="1171.8809,-122 1054.1191,-122 1054.1191,-86 1171.8809,-86 1171.8809,-122"/>
<text text-anchor="middle" x="1113" y="-99.8" font-family="Times,serif" font-size="14.00" fill="#000000">FooterComponent</text>
</g>
<!-- FooterComponent&#45;&gt;AppModule -->
<g id="edge2" class="edge">
<title>FooterComponent&#45;&gt;AppModule</title>
<path fill="none" stroke="#000000" d="M1113,-122.1289C1113,-142.5724 1113,-173 1113,-173 1113,-173 731.0081,-173 731.0081,-173"/>
<polygon fill="#000000" stroke="#000000" points="731.0081,-169.5001 721.0081,-173 731.0081,-176.5001 731.0081,-169.5001"/>
</g>
<!-- HeaderComponent -->
<g id="node3" class="node">
<title>HeaderComponent</title>
<polygon fill="#ffffb3" stroke="#000000" points="1035.7437,-122 914.2563,-122 914.2563,-86 1035.7437,-86 1035.7437,-122"/>
<text text-anchor="middle" x="975" y="-99.8" font-family="Times,serif" font-size="14.00" fill="#000000">HeaderComponent</text>
</g>
<!-- HeaderComponent&#45;&gt;AppModule -->
<g id="edge3" class="edge">
<title>HeaderComponent&#45;&gt;AppModule</title>
<path fill="none" stroke="#000000" d="M975,-122.2667C975,-140.5552 975,-166 975,-166 975,-166 730.7818,-166 730.7818,-166"/>
<polygon fill="#000000" stroke="#000000" points="730.7818,-162.5001 720.7818,-166 730.7817,-169.5001 730.7818,-162.5001"/>
</g>
<!-- HomepageComponent -->
<g id="node4" class="node">
<title>HomepageComponent</title>
<polygon fill="#ffffb3" stroke="#000000" points="895.9734,-122 754.0266,-122 754.0266,-86 895.9734,-86 895.9734,-122"/>
<text text-anchor="middle" x="825" y="-99.8" font-family="Times,serif" font-size="14.00" fill="#000000">HomepageComponent</text>
</g>
<!-- HomepageComponent&#45;&gt;AppModule -->
<g id="edge4" class="edge">
<title>HomepageComponent&#45;&gt;AppModule</title>
<path fill="none" stroke="#000000" d="M825,-122.0091C825,-138.0494 825,-159 825,-159 825,-159 730.8377,-159 730.8377,-159"/>
<polygon fill="#000000" stroke="#000000" points="730.8378,-155.5001 720.8377,-159 730.8377,-162.5001 730.8378,-155.5001"/>
</g>
<!-- LoginComponent -->
<g id="node5" class="node">
<title>LoginComponent</title>
<polygon fill="#ffffb3" stroke="#000000" points="736.2758,-122 621.7242,-122 621.7242,-86 736.2758,-86 736.2758,-122"/>
<text text-anchor="middle" x="679" y="-99.8" font-family="Times,serif" font-size="14.00" fill="#000000">LoginComponent</text>
</g>
<!-- LoginComponent&#45;&gt;AppModule -->
<g id="edge5" class="edge">
<title>LoginComponent&#45;&gt;AppModule</title>
<path fill="none" stroke="#000000" d="M679,-122.1061C679,-122.1061 679,-140.991 679,-140.991"/>
<polygon fill="#000000" stroke="#000000" points="675.5001,-140.9909 679,-150.991 682.5001,-140.991 675.5001,-140.9909"/>
</g>
<!-- ResultsComponent -->
<g id="node6" class="node">
<title>ResultsComponent</title>
<polygon fill="#ffffb3" stroke="#000000" points="603.0548,-122 480.9452,-122 480.9452,-86 603.0548,-86 603.0548,-122"/>
<text text-anchor="middle" x="542" y="-99.8" font-family="Times,serif" font-size="14.00" fill="#000000">ResultsComponent</text>
</g>
<!-- ResultsComponent&#45;&gt;AppModule -->
<g id="edge6" class="edge">
<title>ResultsComponent&#45;&gt;AppModule</title>
<path fill="none" stroke="#000000" d="M542,-122.0091C542,-138.0494 542,-159 542,-159 542,-159 627.1511,-159 627.1511,-159"/>
<polygon fill="#000000" stroke="#000000" points="627.1511,-162.5001 637.1511,-159 627.151,-155.5001 627.1511,-162.5001"/>
</g>
<!-- SearchComponent -->
<g id="node7" class="node">
<title>SearchComponent</title>
<polygon fill="#ffffb3" stroke="#000000" points="462.9201,-122 343.0799,-122 343.0799,-86 462.9201,-86 462.9201,-122"/>
<text text-anchor="middle" x="403" y="-99.8" font-family="Times,serif" font-size="14.00" fill="#000000">SearchComponent</text>
</g>
<!-- SearchComponent&#45;&gt;AppModule -->
<g id="edge7" class="edge">
<title>SearchComponent&#45;&gt;AppModule</title>
<path fill="none" stroke="#000000" d="M403,-122.2667C403,-140.5552 403,-166 403,-166 403,-166 627.0815,-166 627.0815,-166"/>
<polygon fill="#000000" stroke="#000000" points="627.0816,-169.5001 637.0815,-166 627.0815,-162.5001 627.0816,-169.5001"/>
</g>
<!-- UploadpageComponent -->
<g id="node8" class="node">
<title>UploadpageComponent</title>
<polygon fill="#ffffb3" stroke="#000000" points="325.4734,-122 176.5266,-122 176.5266,-86 325.4734,-86 325.4734,-122"/>
<text text-anchor="middle" x="251" y="-99.8" font-family="Times,serif" font-size="14.00" fill="#000000">UploadpageComponent</text>
</g>
<!-- UploadpageComponent&#45;&gt;AppModule -->
<g id="edge8" class="edge">
<title>UploadpageComponent&#45;&gt;AppModule</title>
<path fill="none" stroke="#000000" d="M251,-122.1289C251,-142.5724 251,-173 251,-173 251,-173 627.1823,-173 627.1823,-173"/>
<polygon fill="#000000" stroke="#000000" points="627.1823,-176.5001 637.1823,-173 627.1822,-169.5001 627.1823,-176.5001"/>
</g>
<!-- UserpageComponent -->
<g id="node9" class="node">
<title>UserpageComponent</title>
<polygon fill="#ffffb3" stroke="#000000" points="158.1881,-122 23.8119,-122 23.8119,-86 158.1881,-86 158.1881,-122"/>
<text text-anchor="middle" x="91" y="-99.8" font-family="Times,serif" font-size="14.00" fill="#000000">UserpageComponent</text>
</g>
<!-- UserpageComponent&#45;&gt;AppModule -->
<g id="edge9" class="edge">
<title>UserpageComponent&#45;&gt;AppModule</title>
<path fill="none" stroke="#000000" d="M91,-122.0109C91,-144.4852 91,-180 91,-180 91,-180 627.1839,-180 627.1839,-180"/>
<polygon fill="#000000" stroke="#000000" points="627.1839,-183.5001 637.1839,-180 627.1838,-176.5001 627.1839,-183.5001"/>
</g>
<!-- AppComponent  -->
<g id="node11" class="node">
<title>AppComponent </title>
<polygon fill="#80b1d3" stroke="#000000" points="733.439,-252 624.561,-252 624.561,-216 733.439,-216 733.439,-252"/>
<text text-anchor="middle" x="679" y="-229.8" font-family="Times,serif" font-size="14.00" fill="#000000">AppComponent </text>
</g>
<!-- AppModule&#45;&gt;AppComponent  -->
<g id="edge10" class="edge">
<title>AppModule&#45;&gt;AppComponent </title>
<path fill="none" stroke="#000000" stroke-dasharray="1,5" d="M679,-187.1061C679,-187.1061 679,-205.991 679,-205.991"/>
<polygon fill="#000000" stroke="#000000" points="675.5001,-205.9909 679,-215.991 682.5001,-205.991 675.5001,-205.9909"/>
</g>
</g>
</svg>
