<?xml version="1.0" encoding="UTF-8" standalone="no"?>
<!DOCTYPE svg PUBLIC "-//W3C//DTD SVG 1.1//EN"
 "http://www.w3.org/Graphics/SVG/1.1/DTD/svg11.dtd">
<!-- Generated by graphviz version 2.40.1 (20161225.0304)
 -->
<!-- Title: dependencies Pages: 1 -->
<svg width="1479pt" height="284pt"
 viewBox="0.00 0.00 1479.00 284.00" xmlns="http://www.w3.org/2000/svg" xmlns:xlink="http://www.w3.org/1999/xlink">
<g id="graph0" class="graph" transform="scale(1 1) rotate(0) translate(4 280)">
<title>dependencies</title>
<polygon fill="#ffffff" stroke="transparent" points="-4,4 -4,-280 1475,-280 1475,4 -4,4"/>
<text text-anchor="start" x="714.5091" y="-42.4" font-family="sans-serif" font-weight="bold" font-size="14.00" fill="#000000">Legend</text>
<polygon fill="#ffffb3" stroke="transparent" points="501.5,-10 501.5,-30 521.5,-30 521.5,-10 501.5,-10"/>
<text text-anchor="start" x="525.129" y="-15.4" font-family="sans-serif" font-size="14.00" fill="#000000"> &#160;Declarations</text>
<polygon fill="#8dd3c7" stroke="transparent" points="614.5,-10 614.5,-30 634.5,-30 634.5,-10 614.5,-10"/>
<text text-anchor="start" x="638.2251" y="-15.4" font-family="sans-serif" font-size="14.00" fill="#000000"> &#160;Module</text>
<polygon fill="#80b1d3" stroke="transparent" points="700.5,-10 700.5,-30 720.5,-30 720.5,-10 700.5,-10"/>
<text text-anchor="start" x="724.2812" y="-15.4" font-family="sans-serif" font-size="14.00" fill="#000000"> &#160;Bootstrap</text>
<polygon fill="#fdb462" stroke="transparent" points="797.5,-10 797.5,-30 817.5,-30 817.5,-10 797.5,-10"/>
<text text-anchor="start" x="821.1732" y="-15.4" font-family="sans-serif" font-size="14.00" fill="#000000"> &#160;Providers</text>
<polygon fill="#fb8072" stroke="transparent" points="893.5,-10 893.5,-30 913.5,-30 913.5,-10 893.5,-10"/>
<text text-anchor="start" x="917.2258" y="-15.4" font-family="sans-serif" font-size="14.00" fill="#000000"> &#160;Exports</text>
<g id="clust1" class="cluster">
<title>cluster_AppModule</title>
<polygon fill="none" stroke="#000000" stroke-dasharray="1,5" points="8,-70 8,-268 1463,-268 1463,-70 8,-70"/>
</g>
<g id="clust2" class="cluster">
<title>cluster_AppModule_declarations</title>
<polygon fill="none" stroke="#000000" points="16,-78 16,-130 1455,-130 1455,-78 16,-78"/>
</g>
<g id="clust15" class="cluster">
<title>cluster_AppModule_bootstrap</title>
<polygon fill="none" stroke="#000000" points="697,-208 697,-260 821,-260 821,-208 697,-208"/>
</g>
<!-- AppComponent -->
<g id="node1" class="node">
<title>AppComponent</title>
<polygon fill="#ffffb3" stroke="#000000" points="1446.9399,-122 1341.0601,-122 1341.0601,-86 1446.9399,-86 1446.9399,-122"/>
<text text-anchor="middle" x="1394" y="-99.8" font-family="Times,serif" font-size="14.00" fill="#000000">AppComponent</text>
</g>
<!-- AppModule -->
<g id="node11" class="node">
<title>AppModule</title>
<polygon fill="#8dd3c7" stroke="#000000" points="800.6571,-187 797.6571,-191 776.6571,-191 773.6571,-187 717.3429,-187 717.3429,-151 800.6571,-151 800.6571,-187"/>
<text text-anchor="middle" x="759" y="-164.8" font-family="Times,serif" font-size="14.00" fill="#000000">AppModule</text>
</g>
<!-- AppComponent&#45;&gt;AppModule -->
<g id="edge1" class="edge">
<title>AppComponent&#45;&gt;AppModule</title>
<path fill="none" stroke="#000000" d="M1394,-122.0109C1394,-144.4852 1394,-180 1394,-180 1394,-180 810.6641,-180 810.6641,-180"/>
<polygon fill="#000000" stroke="#000000" points="810.6642,-176.5001 800.6641,-180 810.6641,-183.5001 810.6642,-176.5001"/>
</g>
<!-- FooterComponent -->
<g id="node2" class="node">
<title>FooterComponent</title>
<polygon fill="#ffffb3" stroke="#000000" points="1322.8809,-122 1205.1191,-122 1205.1191,-86 1322.8809,-86 1322.8809,-122"/>
<text text-anchor="middle" x="1264" y="-99.8" font-family="Times,serif" font-size="14.00" fill="#000000">FooterComponent</text>
</g>
<!-- FooterComponent&#45;&gt;AppModule -->
<g id="edge2" class="edge">
<title>FooterComponent&#45;&gt;AppModule</title>
<path fill="none" stroke="#000000" d="M1264,-122.1289C1264,-142.5724 1264,-173 1264,-173 1264,-173 810.7559,-173 810.7559,-173"/>
<polygon fill="#000000" stroke="#000000" points="810.7559,-169.5001 800.7559,-173 810.7559,-176.5001 810.7559,-169.5001"/>
</g>
<!-- HeaderComponent -->
<g id="node3" class="node">
<title>HeaderComponent</title>
<polygon fill="#ffffb3" stroke="#000000" points="1186.7437,-122 1065.2563,-122 1065.2563,-86 1186.7437,-86 1186.7437,-122"/>
<text text-anchor="middle" x="1126" y="-99.8" font-family="Times,serif" font-size="14.00" fill="#000000">HeaderComponent</text>
</g>
<!-- HeaderComponent&#45;&gt;AppModule -->
<g id="edge3" class="edge">
<title>HeaderComponent&#45;&gt;AppModule</title>
<path fill="none" stroke="#000000" d="M1126,-122.2667C1126,-140.5552 1126,-166 1126,-166 1126,-166 810.7423,-166 810.7423,-166"/>
<polygon fill="#000000" stroke="#000000" points="810.7423,-162.5001 800.7423,-166 810.7422,-169.5001 810.7423,-162.5001"/>
</g>
<!-- HomepageComponent -->
<g id="node4" class="node">
<title>HomepageComponent</title>
<polygon fill="#ffffb3" stroke="#000000" points="1046.9734,-122 905.0266,-122 905.0266,-86 1046.9734,-86 1046.9734,-122"/>
<text text-anchor="middle" x="976" y="-99.8" font-family="Times,serif" font-size="14.00" fill="#000000">HomepageComponent</text>
</g>
<!-- HomepageComponent&#45;&gt;AppModule -->
<g id="edge4" class="edge">
<title>HomepageComponent&#45;&gt;AppModule</title>
<path fill="none" stroke="#000000" d="M976,-122.0091C976,-138.0494 976,-159 976,-159 976,-159 810.8398,-159 810.8398,-159"/>
<polygon fill="#000000" stroke="#000000" points="810.8398,-155.5001 800.8398,-159 810.8397,-162.5001 810.8398,-155.5001"/>
</g>
<!-- LoginComponent -->
<g id="node5" class="node">
<title>LoginComponent</title>
<polygon fill="#ffffb3" stroke="#000000" points="887.2758,-122 772.7242,-122 772.7242,-86 887.2758,-86 887.2758,-122"/>
<text text-anchor="middle" x="830" y="-99.8" font-family="Times,serif" font-size="14.00" fill="#000000">LoginComponent</text>
</g>
<!-- LoginComponent&#45;&gt;AppModule -->
<g id="edge5" class="edge">
<title>LoginComponent&#45;&gt;AppModule</title>
<path fill="none" stroke="#000000" d="M786.7202,-122.1061C786.7202,-122.1061 786.7202,-140.991 786.7202,-140.991"/>
<polygon fill="#000000" stroke="#000000" points="783.2203,-140.9909 786.7202,-150.991 790.2203,-140.991 783.2203,-140.9909"/>
</g>
<!-- NewUserComponent -->
<g id="node6" class="node">
<title>NewUserComponent</title>
<polygon fill="#ffffb3" stroke="#000000" points="755.1867,-122 620.8133,-122 620.8133,-86 755.1867,-86 755.1867,-122"/>
<text text-anchor="middle" x="688" y="-99.8" font-family="Times,serif" font-size="14.00" fill="#000000">NewUserComponent</text>
</g>
<!-- NewUserComponent&#45;&gt;AppModule -->
<g id="edge6" class="edge">
<title>NewUserComponent&#45;&gt;AppModule</title>
<path fill="none" stroke="#000000" d="M736.1326,-122.1061C736.1326,-122.1061 736.1326,-140.991 736.1326,-140.991"/>
<polygon fill="#000000" stroke="#000000" points="732.6326,-140.9909 736.1326,-150.991 739.6326,-140.991 732.6326,-140.9909"/>
</g>
<!-- ResultsComponent -->
<g id="node7" class="node">
<title>ResultsComponent</title>
<polygon fill="#ffffb3" stroke="#000000" points="603.0548,-122 480.9452,-122 480.9452,-86 603.0548,-86 603.0548,-122"/>
<text text-anchor="middle" x="542" y="-99.8" font-family="Times,serif" font-size="14.00" fill="#000000">ResultsComponent</text>
</g>
<!-- ResultsComponent&#45;&gt;AppModule -->
<g id="edge7" class="edge">
<title>ResultsComponent&#45;&gt;AppModule</title>
<path fill="none" stroke="#000000" d="M542,-122.0091C542,-138.0494 542,-159 542,-159 542,-159 707.1602,-159 707.1602,-159"/>
<polygon fill="#000000" stroke="#000000" points="707.1603,-162.5001 717.1602,-159 707.1602,-155.5001 707.1603,-162.5001"/>
</g>
<!-- SearchComponent -->
<g id="node8" class="node">
<title>SearchComponent</title>
<polygon fill="#ffffb3" stroke="#000000" points="462.9201,-122 343.0799,-122 343.0799,-86 462.9201,-86 462.9201,-122"/>
<text text-anchor="middle" x="403" y="-99.8" font-family="Times,serif" font-size="14.00" fill="#000000">SearchComponent</text>
</g>
<!-- SearchComponent&#45;&gt;AppModule -->
<g id="edge8" class="edge">
<title>SearchComponent&#45;&gt;AppModule</title>
<path fill="none" stroke="#000000" d="M403,-122.2667C403,-140.5552 403,-166 403,-166 403,-166 707.1154,-166 707.1154,-166"/>
<polygon fill="#000000" stroke="#000000" points="707.1155,-169.5001 717.1154,-166 707.1154,-162.5001 707.1155,-169.5001"/>
</g>
<!-- UploadpageComponent -->
<g id="node9" class="node">
<title>UploadpageComponent</title>
<polygon fill="#ffffb3" stroke="#000000" points="325.4734,-122 176.5266,-122 176.5266,-86 325.4734,-86 325.4734,-122"/>
<text text-anchor="middle" x="251" y="-99.8" font-family="Times,serif" font-size="14.00" fill="#000000">UploadpageComponent</text>
</g>
<!-- UploadpageComponent&#45;&gt;AppModule -->
<g id="edge9" class="edge">
<title>UploadpageComponent&#45;&gt;AppModule</title>
<path fill="none" stroke="#000000" d="M251,-122.1289C251,-142.5724 251,-173 251,-173 251,-173 706.996,-173 706.996,-173"/>
<polygon fill="#000000" stroke="#000000" points="706.9961,-176.5001 716.996,-173 706.996,-169.5001 706.9961,-176.5001"/>
</g>
<!-- UserpageComponent -->
<g id="node10" class="node">
<title>UserpageComponent</title>
<polygon fill="#ffffb3" stroke="#000000" points="158.1881,-122 23.8119,-122 23.8119,-86 158.1881,-86 158.1881,-122"/>
<text text-anchor="middle" x="91" y="-99.8" font-family="Times,serif" font-size="14.00" fill="#000000">UserpageComponent</text>
</g>
<!-- UserpageComponent&#45;&gt;AppModule -->
<g id="edge10" class="edge">
<title>UserpageComponent&#45;&gt;AppModule</title>
<path fill="none" stroke="#000000" d="M91,-122.0109C91,-144.4852 91,-180 91,-180 91,-180 707.2136,-180 707.2136,-180"/>
<polygon fill="#000000" stroke="#000000" points="707.2136,-183.5001 717.2136,-180 707.2136,-176.5001 707.2136,-183.5001"/>
</g>
<!-- AppComponent  -->
<g id="node12" class="node">
<title>AppComponent </title>
<polygon fill="#80b1d3" stroke="#000000" points="813.439,-252 704.561,-252 704.561,-216 813.439,-216 813.439,-252"/>
<text text-anchor="middle" x="759" y="-229.8" font-family="Times,serif" font-size="14.00" fill="#000000">AppComponent </text>
</g>
<!-- AppModule&#45;&gt;AppComponent  -->
<g id="edge11" class="edge">
<title>AppModule&#45;&gt;AppComponent </title>
<path fill="none" stroke="#000000" stroke-dasharray="1,5" d="M759,-187.1061C759,-187.1061 759,-205.991 759,-205.991"/>
<polygon fill="#000000" stroke="#000000" points="755.5001,-205.9909 759,-215.991 762.5001,-205.991 755.5001,-205.9909"/>
</g>
</g>
</svg>
